<svg xmlns="http://www.w3.org/2000/svg" viewBox="0 0 1200 760" role="img" aria-labelledby="title desc">
  <title id="title">Ilustracao UX e UI</title>
  <desc id="desc">Wireframes, prototipos e blocos de design visual.</desc>
  <rect width="1200" height="760" rx="48" fill="#091224" />
  <circle cx="980" cy="150" r="128" fill="#22d3ee" opacity="0.12" />
  <circle cx="188" cy="620" r="160" fill="#60a5fa" opacity="0.1" />
  <rect x="126" y="130" width="948" height="500" rx="38" fill="#101b31" stroke="#67e8f9" stroke-opacity="0.22" />
  <rect x="176" y="184" width="284" height="392" rx="28" fill="#14223d" />
  <rect x="498" y="184" width="528" height="176" rx="28" fill="#14223d" />
  <rect x="498" y="390" width="252" height="186" rx="28" fill="#14223d" />
  <rect x="774" y="390" width="252" height="186" rx="28" fill="#14223d" />
  <rect x="212" y="222" width="212" height="116" rx="22" fill="#22d3ee" opacity="0.26" />
  <rect x="212" y="370" width="212" height="22" rx="11" fill="#ffffff" opacity="0.9" />
  <rect x="212" y="408" width="168" height="14" rx="7" fill="#cbd5e1" opacity="0.52" />
  <rect x="536" y="224" width="186" height="20" rx="10" fill="#ffffff" opacity="0.9" />
  <rect x="536" y="262" width="348" height="14" rx="7" fill="#cbd5e1" opacity="0.55" />
  <rect x="536" y="302" width="126" height="20" rx="10" fill="#22d3ee" opacity="0.82" />
  <circle cx="586" cy="480" r="46" fill="#22d3ee" opacity="0.3" />
  <rect x="824" y="446" width="142" height="22" rx="11" fill="#ffffff" opacity="0.9" />
  <rect x="824" y="484" width="112" height="14" rx="7" fill="#cbd5e1" opacity="0.55" />
</svg>