<svg xmlns="http://www.w3.org/2000/svg" viewBox="0 0 1200 760" role="img" aria-labelledby="title desc">
  <title id="title">Ilustracao Backend</title>
  <desc id="desc">Servidores, APIs e fluxo de dados entre camadas.</desc>
  <defs>
    <linearGradient id="bg" x1="0%" y1="0%" x2="100%" y2="100%">
      <stop offset="0%" stop-color="#07101d" />
      <stop offset="100%" stop-color="#17355a" />
    </linearGradient>
  </defs>
  <rect width="1200" height="760" fill="url(#bg)" rx="48" />
  <circle cx="1040" cy="170" r="120" fill="#60a5fa" opacity="0.16" />
  <circle cx="180" cy="620" r="170" fill="#14b8a6" opacity="0.12" />
  <rect x="160" y="112" width="880" height="116" rx="32" fill="#0d1c31" stroke="#93c5fd" stroke-opacity="0.26" />
  <rect x="250" y="164" width="240" height="24" rx="12" fill="#e2e8f0" opacity="0.88" />
  <rect x="555" y="148" width="118" height="46" rx="16" fill="#1d4ed8" opacity="0.9" />
  <rect x="705" y="148" width="118" height="46" rx="16" fill="#0ea5e9" opacity="0.8" />
  <rect x="855" y="148" width="118" height="46" rx="16" fill="#14b8a6" opacity="0.78" />
  <rect x="198" y="316" width="210" height="270" rx="30" fill="#0d1c31" stroke="#93c5fd" stroke-opacity="0.2" />
  <rect x="495" y="316" width="210" height="270" rx="30" fill="#0d1c31" stroke="#93c5fd" stroke-opacity="0.2" />
  <rect x="792" y="316" width="210" height="270" rx="30" fill="#0d1c31" stroke="#93c5fd" stroke-opacity="0.2" />
  <path d="M408 450H495" stroke="#60a5fa" stroke-width="10" stroke-linecap="round" />
  <path d="M705 450H792" stroke="#60a5fa" stroke-width="10" stroke-linecap="round" />
  <circle cx="451" cy="450" r="16" fill="#60a5fa" />
  <circle cx="748" cy="450" r="16" fill="#60a5fa" />
  <rect x="236" y="360" width="134" height="20" rx="10" fill="#ffffff" opacity="0.88" />
  <rect x="236" y="398" width="110" height="14" rx="7" fill="#cbd5e1" opacity="0.55" />
  <rect x="236" y="446" width="134" height="20" rx="10" fill="#38bdf8" opacity="0.8" />
  <rect x="236" y="484" width="110" height="14" rx="7" fill="#cbd5e1" opacity="0.55" />
  <rect x="533" y="360" width="134" height="20" rx="10" fill="#ffffff" opacity="0.88" />
  <rect x="533" y="398" width="110" height="14" rx="7" fill="#cbd5e1" opacity="0.55" />
  <rect x="533" y="446" width="134" height="20" rx="10" fill="#38bdf8" opacity="0.8" />
  <rect x="533" y="484" width="110" height="14" rx="7" fill="#cbd5e1" opacity="0.55" />
  <rect x="830" y="360" width="134" height="20" rx="10" fill="#ffffff" opacity="0.88" />
  <rect x="830" y="398" width="110" height="14" rx="7" fill="#cbd5e1" opacity="0.55" />
  <rect x="830" y="446" width="134" height="20" rx="10" fill="#38bdf8" opacity="0.8" />
  <rect x="830" y="484" width="110" height="14" rx="7" fill="#cbd5e1" opacity="0.55" />
</svg>