<svg xmlns="http://www.w3.org/2000/svg" viewBox="0 0 1200 760" role="img" aria-labelledby="title desc">
  <title id="title">Ilustracao Dados</title>
  <desc id="desc">Graficos, indicadores e visualizacao analitica de dados.</desc>
  <rect width="1200" height="760" rx="48" fill="#0b1424" />
  <circle cx="970" cy="170" r="140" fill="#f59e0b" opacity="0.12" />
  <circle cx="220" cy="590" r="170" fill="#38bdf8" opacity="0.12" />
  <rect x="120" y="120" width="960" height="520" rx="34" fill="#101d31" stroke="#f8c76a" stroke-opacity="0.24" />
  <rect x="164" y="164" width="320" height="180" rx="28" fill="#14243d" />
  <rect x="520" y="164" width="516" height="180" rx="28" fill="#14243d" />
  <rect x="164" y="382" width="872" height="214" rx="28" fill="#14243d" />
  <circle cx="292" cy="254" r="68" fill="none" stroke="#f59e0b" stroke-width="20" opacity="0.88" />
  <circle cx="292" cy="254" r="46" fill="#101d31" />
  <rect x="586" y="214" width="52" height="88" rx="18" fill="#38bdf8" opacity="0.85" />
  <rect x="668" y="186" width="52" height="116" rx="18" fill="#0ea5e9" opacity="0.88" />
  <rect x="750" y="232" width="52" height="70" rx="18" fill="#f59e0b" opacity="0.82" />
  <rect x="832" y="198" width="52" height="104" rx="18" fill="#22c55e" opacity="0.82" />
  <rect x="914" y="170" width="52" height="132" rx="18" fill="#fb7185" opacity="0.76" />
  <path d="M208 544C314 500 384 444 470 488C566 536 600 558 682 504C770 446 828 430 992 490" fill="none" stroke="#7dd3fc" stroke-width="12" stroke-linecap="round" />
  <circle cx="470" cy="488" r="14" fill="#38bdf8" />
  <circle cx="682" cy="504" r="14" fill="#f59e0b" />
  <circle cx="992" cy="490" r="14" fill="#22c55e" />
  <rect x="208" y="428" width="188" height="20" rx="10" fill="#ffffff" opacity="0.9" />
  <rect x="208" y="462" width="230" height="14" rx="7" fill="#cbd5e1" opacity="0.5" />
</svg>