<svg xmlns="http://www.w3.org/2000/svg" viewBox="0 0 1200 760" role="img" aria-labelledby="title desc">
  <title id="title">Ilustracao Front-end</title>
  <desc id="desc">Painel moderno com componentes visuais, graficos e interface web.</desc>
  <defs>
    <linearGradient id="bg" x1="0%" y1="0%" x2="100%" y2="100%">
      <stop offset="0%" stop-color="#061120" />
      <stop offset="100%" stop-color="#0e2a47" />
    </linearGradient>
    <linearGradient id="card" x1="0%" y1="0%" x2="100%" y2="100%">
      <stop offset="0%" stop-color="#38bdf8" stop-opacity="0.8" />
      <stop offset="100%" stop-color="#22c55e" stop-opacity="0.45" />
    </linearGradient>
  </defs>
  <rect width="1200" height="760" fill="url(#bg)" rx="48" />
  <circle cx="980" cy="140" r="130" fill="#38bdf8" opacity="0.12" />
  <circle cx="210" cy="610" r="180" fill="#22c55e" opacity="0.12" />
  <rect x="110" y="110" width="980" height="540" rx="34" fill="#0b1729" stroke="#7dd3fc" stroke-opacity="0.2" />
  <rect x="150" y="150" width="920" height="84" rx="22" fill="#11233c" />
  <rect x="190" y="178" width="220" height="28" rx="14" fill="#38bdf8" opacity="0.85" />
  <rect x="150" y="274" width="270" height="320" rx="28" fill="#10223b" stroke="#7dd3fc" stroke-opacity="0.18" />
  <rect x="452" y="274" width="618" height="148" rx="28" fill="url(#card)" />
  <rect x="452" y="446" width="292" height="148" rx="28" fill="#10223b" stroke="#7dd3fc" stroke-opacity="0.18" />
  <rect x="778" y="446" width="292" height="148" rx="28" fill="#10223b" stroke="#7dd3fc" stroke-opacity="0.18" />
  <rect x="184" y="314" width="202" height="22" rx="11" fill="#38bdf8" opacity="0.7" />
  <rect x="184" y="356" width="170" height="16" rx="8" fill="#cbd5e1" opacity="0.55" />
  <rect x="184" y="386" width="150" height="16" rx="8" fill="#cbd5e1" opacity="0.35" />
  <rect x="184" y="438" width="92" height="92" rx="18" fill="#38bdf8" opacity="0.3" />
  <rect x="292" y="438" width="92" height="92" rx="18" fill="#22c55e" opacity="0.26" />
  <rect x="498" y="314" width="252" height="22" rx="11" fill="#ffffff" opacity="0.86" />
  <rect x="498" y="352" width="436" height="16" rx="8" fill="#dbeafe" opacity="0.52" />
  <rect x="498" y="486" width="160" height="22" rx="11" fill="#ffffff" opacity="0.82" />
  <rect x="498" y="524" width="198" height="14" rx="7" fill="#dbeafe" opacity="0.4" />
  <rect x="824" y="486" width="160" height="22" rx="11" fill="#ffffff" opacity="0.82" />
  <rect x="824" y="524" width="174" height="14" rx="7" fill="#dbeafe" opacity="0.4" />
</svg>