<svg xmlns="http://www.w3.org/2000/svg" viewBox="0 0 1200 760" role="img" aria-labelledby="title desc">
  <title id="title">Ilustracao Seguranca</title>
  <desc id="desc">Escudo digital, cadeado e camadas de protecao.</desc>
  <rect width="1200" height="760" rx="48" fill="#10111d" />
  <circle cx="990" cy="160" r="130" fill="#fb7185" opacity="0.12" />
  <circle cx="220" cy="610" r="160" fill="#38bdf8" opacity="0.1" />
  <rect x="170" y="120" width="860" height="520" rx="36" fill="#161928" stroke="#fda4af" stroke-opacity="0.22" />
  <path d="M600 214L810 286V420C810 520 734 598 600 632C466 598 390 520 390 420V286L600 214Z" fill="#0f172a" stroke="#fb7185" stroke-width="12" />
  <path d="M600 292C646 292 684 330 684 376V406H516V376C516 330 554 292 600 292Z" fill="#38bdf8" opacity="0.25" />
  <rect x="486" y="406" width="228" height="142" rx="28" fill="#1f2937" stroke="#7dd3fc" stroke-opacity="0.24" />
  <circle cx="600" cy="468" r="28" fill="#fb7185" opacity="0.9" />
  <rect x="588" y="490" width="24" height="30" rx="12" fill="#fb7185" opacity="0.9" />
  <rect x="254" y="182" width="178" height="18" rx="9" fill="#ffffff" opacity="0.88" />
  <rect x="254" y="216" width="138" height="14" rx="7" fill="#cbd5e1" opacity="0.5" />
  <rect x="768" y="182" width="178" height="18" rx="9" fill="#ffffff" opacity="0.88" />
  <rect x="768" y="216" width="138" height="14" rx="7" fill="#cbd5e1" opacity="0.5" />
</svg>